<svg xmlns="http://www.w3.org/2000/svg" version="1.1" xmlns:xlink="http://www.w3.org/1999/xlink" xmlns:svgjs="http://svgjs.dev/svgjs" width="1000" height="1000" viewBox="0 0 1000 1000"><rect width="1000" height="1000" fill="#ffffff"></rect><g transform="matrix(0.7,0,0,0.7,149.57605563665675,410.39029884442937)"><svg viewBox="0 0 396 101" data-background-color="#ffffff" preserveAspectRatio="xMidYMid meet" height="255" width="1000" xmlns="http://www.w3.org/2000/svg" xmlns:xlink="http://www.w3.org/1999/xlink"><g id="tight-bounds" transform="matrix(1,0,0,1,0.24008861730862918,0.20362960025710208)"><svg viewBox="0 0 395.52 100.59283353428519" height="100.59283353428519" width="395.52"><g><svg viewBox="0 0 395.52 100.59283353428519" height="100.59283353428519" width="395.52"><g><svg viewBox="0 0 395.52 100.59283353428519" height="100.59283353428519" width="395.52"><g id="textblocktransform"><svg viewBox="0 0 395.52 100.59283353428519" height="100.59283353428519" width="395.52" id="textblock"><g><svg viewBox="0 0 395.52 100.59283353428519" height="100.59283353428519" width="395.52"><path d="M394.594 21.575C392.735 11.134 387.435 8.231 387.435 8.231 371.165-2.524 350.86-0.206 332.619 1.34 300.414 1.402 268.339 3.699 236.208 4.931 168.767 5.119 100.749 2.029 33.643 9.651 27.339 11.99-6.54 10.11 1.121 22.912 3.129 28.237 10.456 34.147 10.232 39.033 11.236 39.89 12.631 37.927 13.226 39.159 15.309 42.479 18.711 40.913 21.501 42.876 17.614 48.118 20.403 52.482 23.062 57.055 18.377 58.246 12.371 57.682 9.675 61.629 9.396 64.49 7.89 63.947 6.235 63.822 5.026 63.738 2.59 64.051 2.999 64.949 4.394 68.019-1.594 69.794 2.162 72.801-0.422 76.059 3.948 78.878 3.353 82.407 3.278 83.117 3.687 83.723 4.338 83.89 7.22 84.788 3.018 86.542 3.464 88.443 33.029 101.432 65.104 92.452 95.394 98.425 103.259 94.248 97.346 99.907 100.489 99.03 102.943 98.007 104.728 102.246 107.499 99.845 107.927 99.156 107.276 97.527 108.8 97.84 109.6 98.007 110.307 97.965 110.418 97.005 110.586 95.564 109.117 96.462 108.726 95.71 112.947 91.909 111.906 100.952 115.866 100.576 115.68 99.469 114.528 97.882 116.889 98.091 119.232 96.503 119.306 95.188 121.389 98.759 121.463 99.531 121.835 100.074 122.43 100.45 128.938 96.566 135.409 101.829 142.233 100.074 146.417 98.153 150.433 101.119 154.672 100.388 156.16 99.803 157.666 98.759 159.098 100.513 176.632 100.889 195.319 99.323 211.943 100.576 256.364 98.237 303.835 101.536 350.674 98.446 361.719 97.255 373.192 95.564 383.958 94.206 383.958 94.206 392.679 90.489 392.679 73.783S394.538 59.165 394.817 45.862C395.096 32.56 396.398 32.017 394.538 21.575Z" opacity="1" fill="#000000" data-fill-palette-color="tertiary"></path><g transform="matrix(1,0,0,1,55.76832,26.230666666666668)"><svg width="283.98335999999995" viewBox="2.200000047683716 -31.549999237060547 189.08999633789062 32.04999923706055" height="48.131500200951855" data-palette-color="#ffffff"><path d="M10.95-10.2Q10.95-8.65 11.6-7.9 12.25-7.15 13.73-7.15 15.2-7.15 15.78-7.88 16.35-8.6 16.35-10.25L16.35-10.25 16.35-31.05 24.95-31.05 24.95-9.75Q24.95-4.4 22.03-1.95 19.1 0.5 13.43 0.5 7.75 0.5 4.98-1.93 2.2-4.35 2.2-9.65L2.2-9.65 2.2-31.05 10.95-31.05 10.95-10.2ZM52-31.05L52 0 43.8 0 37.35-14.45 36.95-14.45 36.95 0 29.35 0 29.35-31.05 37.8-31.05 43.95-16.15 44.35-16.15 44.35-31.05 52-31.05ZM72.85-15L78.4 0 68.95 0 65.2-11.7 64.7-11.7 64.7 0 56.4 0 56.4-31.05 64.7-31.05 64.7-18.05 65.2-18.05 69.7-31.05 78.9-31.05 72.85-15ZM103.29-31.05L103.29 0 95.09 0 88.64-14.45 88.24-14.45 88.24 0 80.64 0 80.64-31.05 89.09-31.05 95.24-16.15 95.64-16.15 95.64-31.05 103.29-31.05ZM109.57-27.8Q112.44-31.55 118.99-31.55 125.54-31.55 128.37-27.85 131.19-24.15 131.19-15.83 131.19-7.5 128.29-3.5 125.39 0.5 118.89 0.5 112.39 0.5 109.54-3.45 106.69-7.4 106.69-15.73 106.69-24.05 109.57-27.8ZM122.59-15.8Q122.59-20.4 121.87-22.03 121.14-23.65 118.92-23.65 116.69-23.65 116.04-22.03 115.39-20.4 115.39-15.85L115.39-15.85 115.39-14.65Q115.39-9.8 116.12-8.28 116.84-6.75 119.07-6.75 121.29-6.75 121.94-8.2 122.59-9.65 122.59-14.2L122.59-14.2 122.59-15.8ZM157.54-31.05L165.44-31.05 162.64 0 152.34 0 149.64-13.75 149.24-13.75 146.99 0 136.64 0 133.39-31.05 141.59-31.05 142.89-14.6 143.39-14.6 145.49-31.05 153.84-31.05 156.14-14.6 156.64-14.6 157.54-31.05ZM191.29-31.05L191.29 0 183.09 0 176.64-14.45 176.24-14.45 176.24 0 168.64 0 168.64-31.05 177.09-31.05 183.24-16.15 183.64-16.15 183.64-31.05 191.29-31.05Z" opacity="1" transform="matrix(1,0,0,1,0,0)" fill="#ffffff" class="wordmark-text-0" data-fill-palette-color="quaternary" id="text-0"></path></svg></g></svg></g></svg></g></svg></g><g></g></svg></g><defs></defs></svg><rect width="395.52" height="100.59283353428519" fill="none" stroke="none" visibility="hidden"></rect></g></svg></g></svg>